# xmcd
#
# Track frame offsets: 
#        150
#        10989
#        24272
#        37724
#        49912
#        63104
#        75868
#        87766
#        97225
#        109466
#        122827
#        135685
#        147927
#        160365
#        171925
#        183993
#        197346
#        209604
#        222128
#        233209
#        246576
#        258757
#        271401
#
# Disc length: 3782 seconds
#
# Revision: 0
# Processed by: cddbd v1.5.2PL0 Copyright (c) Steve Scherf et al.
# Submitted via: ExactAudioCopy v0.99pb4
#
DISCID=400ec417
DTITLE=Johnny Bond - I Like My Chicken Fryin' Size
DYEAR=2002
DGENRE=Country
TTITLE0=Bartender Blues
TTITLE1=Rock My Cradle Again
TTITLE2=Drowning My Sorrows
TTITLE3=What Would You Do (If You Were Me)
TTITLE4=Set'Em Up Joe
TTITLE5=Too Many Years Too Late
TTITLE6=The Daughter Of Jole Blon'
TTITLE7=Whoopee TI YI YO
TTITLE8=Draftee Blues
TTITLE9=Fat Gal
TTITLE10=Smoke! Smoke! Smoke: (That Cigarette)
TTITLE11=Divorce Me C.O.D.
TTITLE12=Cimarron (Roll On)
TTITLE13=Barrel House Bessie
TTITLE14=Oklahoma Waltz
TTITLE15=Rainbow At Midnight
TTITLE16=The First Rose
TTITLE17=I'll Step Aside
TTITLE18=A Pedal From A Faded Rose
TTITLE19=So, Round, So Firm, So Fully Packed
TTITLE20=Put Me To Bed
TTITLE21=I Like My Chicken Fryin' Size
TTITLE22=I'm Gonna Be Long Gone (When I Go Away)
EXTD=
EXTT0=
EXTT1=
EXTT2=
EXTT3=
EXTT4=
EXTT5=
EXTT6=
EXTT7=
EXTT8=
EXTT9=
EXTT10=
EXTT11=
EXTT12=
EXTT13=
EXTT14=
EXTT15=
EXTT16=
EXTT17=
EXTT18=
EXTT19=
EXTT20=
EXTT21=
EXTT22=
PLAYORDER=
